name p3_grf_mean_speed_1.8
datacolumns 13
datarows 68
range 0.0000000000 0.6700000000
endheader
time	grf_x_l_mean	grf_x_l_var	grf_y_l_mean	grf_y_l_var	grf_z_l_mean	grf_z_l_var	grf_x_r_mean	grf_x_r_var	grf_y_r_mean	grf_y_r_var	grf_z_r_mean	grf_z_r_var
0.0000000000	249.9582397665	1.0000000000	995.0249398428	1.0000000000	0.0000000000	0.0000000000	15.0167998771	1.0000000000	11.9203311198	1.0000000000	0.0000000000	0.0000000000
0.0100000000	261.9736712041	1.0000000000	947.7732219949	1.0000000000	0.0000000000	0.0000000000	15.9603630141	1.0000000000	66.3756313107	1.0000000000	0.0000000000	0.0000000000
0.0200000000	267.9992274350	1.0000000000	879.9064378315	1.0000000000	0.0000000000	0.0000000000	10.7705516962	1.0000000000	156.6217089780	1.0000000000	0.0000000000	0.0000000000
0.0300000000	265.9933296015	1.0000000000	792.6588373417	1.0000000000	0.0000000000	0.0000000000	-6.5684014547	1.0000000000	280.6010915400	1.0000000000	0.0000000000	0.0000000000
0.0400000000	253.6598972507	1.0000000000	688.5795892650	1.0000000000	0.0000000000	0.0000000000	-40.9086827225	1.0000000000	424.8604835631	1.0000000000	0.0000000000	0.0000000000
0.0500000000	229.3807727383	1.0000000000	572.1352805765	1.0000000000	0.0000000000	0.0000000000	-87.6560325797	1.0000000000	571.7490687695	1.0000000000	0.0000000000	0.0000000000
0.0600000000	195.5844551414	1.0000000000	450.9291958654	1.0000000000	0.0000000000	0.0000000000	-135.0577620710	1.0000000000	707.2469946512	1.0000000000	0.0000000000	0.0000000000
0.0700000000	156.6061077780	1.0000000000	334.3727931733	1.0000000000	0.0000000000	0.0000000000	-175.6107336851	1.0000000000	822.5770843810	1.0000000000	0.0000000000	0.0000000000
0.0800000000	116.3685452322	1.0000000000	230.3042242972	1.0000000000	0.0000000000	0.0000000000	-207.8832094028	1.0000000000	914.4156606909	1.0000000000	0.0000000000	0.0000000000
0.0900000000	79.8150086884	1.0000000000	144.0469245561	1.0000000000	0.0000000000	0.0000000000	-230.5696889409	1.0000000000	984.8740646042	1.0000000000	0.0000000000	0.0000000000
0.1000000000	50.4906067288	1.0000000000	78.8348142037	1.0000000000	0.0000000000	0.0000000000	-242.3200927797	1.0000000000	1038.8176875556	1.0000000000	0.0000000000	0.0000000000
0.1100000000	28.4234384049	1.0000000000	34.5945669425	1.0000000000	0.0000000000	0.0000000000	-244.7172338406	1.0000000000	1080.1104717391	1.0000000000	0.0000000000	0.0000000000
0.1200000000	13.3468398330	1.0000000000	7.8117074903	1.0000000000	0.0000000000	0.0000000000	-239.7315343208	1.0000000000	1109.5737112069	1.0000000000	0.0000000000	0.0000000000
0.1300000000	0.0000000000	1.0000000000	0.0000000000	1.0000000000	0.0000000000	0.0000000000	-227.6003513636	1.0000000000	1126.5296777103	1.0000000000	0.0000000000	0.0000000000
0.1400000000	0.0000000000	1.0000000000	0.0000000000	1.0000000000	0.0000000000	0.0000000000	-210.1272047991	1.0000000000	1130.9816347795	1.0000000000	0.0000000000	0.0000000000
0.1500000000	0.0000000000	1.0000000000	0.0000000000	1.0000000000	0.0000000000	0.0000000000	-190.0589827982	1.0000000000	1122.9503798589	1.0000000000	0.0000000000	0.0000000000
0.1600000000	0.0000000000	1.0000000000	0.0000000000	1.0000000000	0.0000000000	0.0000000000	-167.9224572961	1.0000000000	1101.9332910272	1.0000000000	0.0000000000	0.0000000000
0.1700000000	0.0000000000	1.0000000000	0.0000000000	1.0000000000	0.0000000000	0.0000000000	-144.3129560921	1.0000000000	1068.5722466723	1.0000000000	0.0000000000	0.0000000000
0.1800000000	0.0000000000	1.0000000000	0.0000000000	1.0000000000	0.0000000000	0.0000000000	-121.4196553620	1.0000000000	1025.0166173693	1.0000000000	0.0000000000	0.0000000000
0.1900000000	0.0000000000	1.0000000000	0.0000000000	1.0000000000	0.0000000000	0.0000000000	-100.1543455684	1.0000000000	973.2498240638	1.0000000000	0.0000000000	0.0000000000
0.2000000000	0.0000000000	1.0000000000	0.0000000000	1.0000000000	0.0000000000	0.0000000000	-80.4942977740	1.0000000000	914.8114944230	1.0000000000	0.0000000000	0.0000000000
0.2100000000	0.0000000000	1.0000000000	0.0000000000	1.0000000000	0.0000000000	0.0000000000	-63.5007101509	1.0000000000	852.1036102025	1.0000000000	0.0000000000	0.0000000000
0.2200000000	0.0000000000	1.0000000000	0.0000000000	1.0000000000	0.0000000000	0.0000000000	-49.8152872681	1.0000000000	788.5783759406	1.0000000000	0.0000000000	0.0000000000
0.2300000000	0.0000000000	1.0000000000	0.0000000000	1.0000000000	0.0000000000	0.0000000000	-38.6028383227	1.0000000000	727.6376838121	1.0000000000	0.0000000000	0.0000000000
0.2400000000	0.0000000000	1.0000000000	0.0000000000	1.0000000000	0.0000000000	0.0000000000	-29.4985496971	1.0000000000	671.5731681140	1.0000000000	0.0000000000	0.0000000000
0.2500000000	0.0000000000	1.0000000000	0.0000000000	1.0000000000	0.0000000000	0.0000000000	-22.7276441605	1.0000000000	621.7169478069	1.0000000000	0.0000000000	0.0000000000
0.2600000000	0.0000000000	1.0000000000	0.0000000000	1.0000000000	0.0000000000	0.0000000000	-17.4344085497	1.0000000000	579.4357314282	1.0000000000	0.0000000000	0.0000000000
0.2700000000	0.0000000000	1.0000000000	0.0000000000	1.0000000000	0.0000000000	0.0000000000	-12.9270270635	1.0000000000	546.0937775979	1.0000000000	0.0000000000	0.0000000000
0.2800000000	0.0000000000	1.0000000000	0.0000000000	1.0000000000	0.0000000000	0.0000000000	-9.3440689495	1.0000000000	521.9836022997	1.0000000000	0.0000000000	0.0000000000
0.2900000000	0.0000000000	1.0000000000	0.0000000000	1.0000000000	0.0000000000	0.0000000000	-6.3295062631	1.0000000000	506.2975492131	1.0000000000	0.0000000000	0.0000000000
0.3000000000	0.0000000000	1.0000000000	0.0000000000	1.0000000000	0.0000000000	0.0000000000	-3.3372360243	1.0000000000	498.2252225459	1.0000000000	0.0000000000	0.0000000000
0.3100000000	0.0000000000	1.0000000000	0.0000000000	1.0000000000	0.0000000000	0.0000000000	-0.3493128628	1.0000000000	497.3173629049	1.0000000000	0.0000000000	0.0000000000
0.3200000000	0.0000000000	1.0000000000	0.0000000000	1.0000000000	0.0000000000	0.0000000000	2.8349991864	1.0000000000	503.0294052466	1.0000000000	0.0000000000	0.0000000000
0.3300000000	0.0000000000	1.0000000000	0.0000000000	1.0000000000	0.0000000000	0.0000000000	6.7159800385	1.0000000000	514.6179877260	1.0000000000	0.0000000000	0.0000000000
0.3400000000	0.0000000000	1.0000000000	0.0000000000	1.0000000000	0.0000000000	0.0000000000	11.3311692794	1.0000000000	531.2563416776	1.0000000000	0.0000000000	0.0000000000
0.3500000000	0.0000000000	1.0000000000	0.0000000000	1.0000000000	0.0000000000	0.0000000000	16.7987037733	1.0000000000	552.2386207003	1.0000000000	0.0000000000	0.0000000000
0.3600000000	0.0000000000	1.0000000000	0.0000000000	1.0000000000	0.0000000000	0.0000000000	23.7650014460	1.0000000000	577.3328044803	1.0000000000	0.0000000000	0.0000000000
0.3700000000	0.0000000000	1.0000000000	0.0000000000	1.0000000000	0.0000000000	0.0000000000	32.4099702927	1.0000000000	606.6418402267	1.0000000000	0.0000000000	0.0000000000
0.3800000000	0.0000000000	1.0000000000	0.0000000000	1.0000000000	0.0000000000	0.0000000000	42.5704296175	1.0000000000	639.9848115151	1.0000000000	0.0000000000	0.0000000000
0.3900000000	0.0000000000	1.0000000000	0.0000000000	1.0000000000	0.0000000000	0.0000000000	54.6416548814	1.0000000000	676.7370488606	1.0000000000	0.0000000000	0.0000000000
0.4000000000	0.0000000000	1.0000000000	0.0000000000	1.0000000000	0.0000000000	0.0000000000	68.8473784748	1.0000000000	716.2795473467	1.0000000000	0.0000000000	0.0000000000
0.4100000000	0.0000000000	1.0000000000	0.0000000000	1.0000000000	0.0000000000	0.0000000000	84.7834526566	1.0000000000	758.0499336327	1.0000000000	0.0000000000	0.0000000000
0.4200000000	0.0000000000	1.0000000000	0.0000000000	1.0000000000	0.0000000000	0.0000000000	102.1678216464	1.0000000000	801.0214306824	1.0000000000	0.0000000000	0.0000000000
0.4300000000	0.0000000000	1.0000000000	0.0000000000	1.0000000000	0.0000000000	0.0000000000	120.8703880099	1.0000000000	843.5830991918	1.0000000000	0.0000000000	0.0000000000
0.4400000000	0.0000000000	1.0000000000	0.0000000000	1.0000000000	0.0000000000	0.0000000000	140.4569657022	1.0000000000	883.9215771727	1.0000000000	0.0000000000	0.0000000000
0.4500000000	0.0000000000	1.0000000000	0.0000000000	1.0000000000	0.0000000000	0.0000000000	160.5933243143	1.0000000000	920.0976275236	1.0000000000	0.0000000000	0.0000000000
0.4600000000	0.0000000000	1.0000000000	0.0000000000	1.0000000000	0.0000000000	0.0000000000	181.2551821313	1.0000000000	949.8333333076	1.0000000000	0.0000000000	0.0000000000
0.4700000000	0.0000000000	1.0000000000	0.0000000000	1.0000000000	0.0000000000	0.0000000000	202.1322275098	1.0000000000	970.6573245703	1.0000000000	0.0000000000	0.0000000000
0.4800000000	0.0000000000	1.0000000000	0.0000000000	1.0000000000	0.0000000000	0.0000000000	222.6946684550	1.0000000000	980.0716810517	1.0000000000	0.0000000000	0.0000000000
0.4900000000	0.0000000000	1.0000000000	0.0000000000	1.0000000000	0.0000000000	0.0000000000	242.5256053903	1.0000000000	975.3610308978	1.0000000000	0.0000000000	0.0000000000
0.5000000000	11.5682858842	1.0000000000	21.7485341569	1.0000000000	0.0000000000	0.0000000000	260.6425985677	1.0000000000	953.7702665166	1.0000000000	0.0000000000	0.0000000000
0.5100000000	8.3142237543	1.0000000000	82.6119438267	1.0000000000	0.0000000000	0.0000000000	275.1753882160	1.0000000000	913.3147031636	1.0000000000	0.0000000000	0.0000000000
0.5200000000	-2.5072194065	1.0000000000	179.3655815952	1.0000000000	0.0000000000	0.0000000000	283.8825688886	1.0000000000	853.2076600365	1.0000000000	0.0000000000	0.0000000000
0.5300000000	-25.1998764662	1.0000000000	309.1437812252	1.0000000000	0.0000000000	0.0000000000	284.1573941921	1.0000000000	773.7361029222	1.0000000000	0.0000000000	0.0000000000
0.5400000000	-61.8991464952	1.0000000000	458.3864779215	1.0000000000	0.0000000000	0.0000000000	273.0978082023	1.0000000000	676.4668611245	1.0000000000	0.0000000000	0.0000000000
0.5500000000	-107.9767141988	1.0000000000	608.9694369349	1.0000000000	0.0000000000	0.0000000000	249.1320853489	1.0000000000	565.1937019957	1.0000000000	0.0000000000	0.0000000000
0.5600000000	-153.9300884847	1.0000000000	746.1214487242	1.0000000000	0.0000000000	0.0000000000	213.8286406736	1.0000000000	446.9473215713	1.0000000000	0.0000000000	0.0000000000
0.5700000000	-193.0964005574	1.0000000000	861.1360377069	1.0000000000	0.0000000000	0.0000000000	171.0668346026	1.0000000000	331.1854381764	1.0000000000	0.0000000000	0.0000000000
0.5800000000	-223.6041921507	1.0000000000	951.5171426957	1.0000000000	0.0000000000	0.0000000000	126.1414779676	1.0000000000	227.0187334750	1.0000000000	0.0000000000	0.0000000000
0.5900000000	-244.8999573815	1.0000000000	1020.2743535049	1.0000000000	0.0000000000	0.0000000000	85.2786858782	1.0000000000	141.0259622355	1.0000000000	0.0000000000	0.0000000000
0.6000000000	-256.5894367510	1.0000000000	1072.7356542927	1.0000000000	0.0000000000	0.0000000000	52.5705313860	1.0000000000	76.4632736556	1.0000000000	0.0000000000	0.0000000000
0.6100000000	-259.4858881151	1.0000000000	1112.7381407377	1.0000000000	0.0000000000	0.0000000000	28.7278823152	1.0000000000	32.9104530302	1.0000000000	0.0000000000	0.0000000000
0.6200000000	-254.5640176567	1.0000000000	1141.3747145848	1.0000000000	0.0000000000	0.0000000000	13.1874895864	1.0000000000	6.8601688733	1.0000000000	0.0000000000	0.0000000000
0.6300000000	-242.4715817149	1.0000000000	1158.3506230488	1.0000000000	0.0000000000	0.0000000000	0.0000000000	1.0000000000	0.0000000000	1.0000000000	0.0000000000	0.0000000000
0.6400000000	-224.8816917748	1.0000000000	1163.1629800618	1.0000000000	0.0000000000	0.0000000000	0.0000000000	1.0000000000	0.0000000000	1.0000000000	0.0000000000	0.0000000000
0.6500000000	-203.7287240180	1.0000000000	1154.9518910876	1.0000000000	0.0000000000	0.0000000000	0.0000000000	1.0000000000	0.0000000000	1.0000000000	0.0000000000	0.0000000000
0.6600000000	-180.0648973027	1.0000000000	1132.8894324732	1.0000000000	0.0000000000	0.0000000000	0.0000000000	1.0000000000	0.0000000000	1.0000000000	0.0000000000	0.0000000000
0.6700000000	-155.1699858779	1.0000000000	1097.3823023191	1.0000000000	0.0000000000	0.0000000000	0.0000000000	1.0000000000	0.0000000000	1.0000000000	0.0000000000	0.0000000000
